<?xml version="1.0" encoding="UTF-8" standalone="no"?>
<!-- Created with Inkscape (http://www.inkscape.org/) -->

<svg
   xmlns:dc="http://purl.org/dc/elements/1.1/"
   xmlns:cc="http://creativecommons.org/ns#"
   xmlns:rdf="http://www.w3.org/1999/02/22-rdf-syntax-ns#"
   xmlns:svg="http://www.w3.org/2000/svg"
   xmlns="http://www.w3.org/2000/svg"
   xmlns:xlink="http://www.w3.org/1999/xlink"
   xmlns:sodipodi="http://sodipodi.sourceforge.net/DTD/sodipodi-0.dtd"
   xmlns:inkscape="http://www.inkscape.org/namespaces/inkscape"
   width="31.882296mm"
   height="8.2020855mm"
   viewBox="0 0 31.882296 8.2020855"
   version="1.1"
   id="svg8"
   inkscape:version="0.92.4 (5da689c313, 2019-01-14)"
   sodipodi:docname="beef-logo.svg"
   inkscape:export-filename="C:\Users\knutankv\git-repos\beef\beef-logo.png"
   inkscape:export-xdpi="262.19"
   inkscape:export-ydpi="262.19">
  <defs
     id="defs2">
    <linearGradient
       id="linearGradient1104"
       inkscape:collect="always">
      <stop
         style="stop-color:#f8f719;stop-opacity:1"
         offset="0"
         id="stop1102" />
      <stop
         style="stop-color:#f6ba3b;stop-opacity:1"
         offset="0.30685842"
         id="stop1100" />
      <stop
         id="stop1098"
         offset="0.62499288"
         style="stop-color:#57cc7a;stop-opacity:1" />
      <stop
         id="stop1096"
         offset="0.85825829"
         style="stop-color:#486895;stop-opacity:0.98431373;" />
      <stop
         style="stop-color:#3e26a8;stop-opacity:0.97568625"
         offset="1"
         id="stop1094" />
    </linearGradient>
    <linearGradient
       id="linearGradient1007"
       inkscape:collect="always">
      <stop
         id="stop1003"
         offset="0"
         style="stop-color:#000000;stop-opacity:1;" />
      <stop
         id="stop1005"
         offset="1"
         style="stop-color:#000000;stop-opacity:0" />
    </linearGradient>
    <linearGradient
       inkscape:collect="always"
       id="linearGradient972">
      <stop
         style="stop-color:#dfb51a;stop-opacity:1"
         offset="0"
         id="stop968" />
      <stop
         style="stop-color:#4747eb;stop-opacity:1"
         offset="1"
         id="stop970" />
    </linearGradient>
    <linearGradient
       inkscape:collect="always"
       id="linearGradient966">
      <stop
         style="stop-color:#dfb51a;stop-opacity:1"
         offset="0"
         id="stop962" />
      <stop
         id="stop991"
         offset="1"
         style="stop-color:#a68f80;stop-opacity:1;" />
    </linearGradient>
    <linearGradient
       id="linearGradient923"
       inkscape:collect="always">
      <stop
         id="stop919"
         offset="0"
         style="stop-color:#00801b;stop-opacity:0" />
      <stop
         id="stop921"
         offset="1"
         style="stop-color:#00801b;stop-opacity:0;" />
    </linearGradient>
    <linearGradient
       id="linearGradient917"
       inkscape:collect="always">
      <stop
         id="stop913"
         offset="0"
         style="stop-color:#dfb51a;stop-opacity:1" />
      <stop
         id="stop915"
         offset="1"
         style="stop-color:#3e26a8;stop-opacity:1" />
    </linearGradient>
    <linearGradient
       id="linearGradient911"
       inkscape:collect="always">
      <stop
         id="stop907"
         offset="0"
         style="stop-color:#00801b;stop-opacity:0" />
      <stop
         id="stop909"
         offset="1"
         style="stop-color:#00801b;stop-opacity:0;" />
    </linearGradient>
    <linearGradient
       inkscape:collect="always"
       xlink:href="#linearGradient923"
       id="linearGradient901"
       x1="54.438019"
       y1="39.560417"
       x2="83.44297"
       y2="38.700523"
       gradientUnits="userSpaceOnUse" />
    <linearGradient
       inkscape:collect="always"
       xlink:href="#linearGradient911"
       id="linearGradient905"
       x1="54.438019"
       y1="39.560417"
       x2="83.44297"
       y2="38.700523"
       gradientUnits="userSpaceOnUse" />
    <linearGradient
       inkscape:collect="always"
       xlink:href="#linearGradient1007"
       id="linearGradient946"
       x1="56.885418"
       y1="40.354168"
       x2="83.34375"
       y2="40.354168"
       gradientUnits="userSpaceOnUse" />
    <linearGradient
       inkscape:collect="always"
       xlink:href="#linearGradient966"
       id="linearGradient948"
       gradientUnits="userSpaceOnUse"
       x1="63.5"
       y1="39.560417"
       x2="73.587242"
       y2="39.560417" />
    <linearGradient
       inkscape:collect="always"
       xlink:href="#linearGradient917"
       id="linearGradient952"
       gradientUnits="userSpaceOnUse"
       x1="63.5"
       y1="39.560417"
       x2="85.989586"
       y2="39.560417" />
    <linearGradient
       inkscape:collect="always"
       xlink:href="#linearGradient972"
       id="linearGradient974"
       gradientUnits="userSpaceOnUse"
       x1="63.5"
       y1="39.560417"
       x2="85.989586"
       y2="39.560417" />
    <linearGradient
       inkscape:collect="always"
       xlink:href="#linearGradient1007"
       id="linearGradient4809"
       gradientUnits="userSpaceOnUse"
       x1="56.885418"
       y1="40.354168"
       x2="83.34375"
       y2="40.354168" />
    <linearGradient
       inkscape:collect="always"
       xlink:href="#linearGradient1104"
       id="linearGradient4811"
       x1="60.832848"
       y1="40.347889"
       x2="85.989584"
       y2="40.347889"
       gradientUnits="userSpaceOnUse" />
  </defs>
  <sodipodi:namedview
     id="base"
     pagecolor="#ffffff"
     bordercolor="#666666"
     borderopacity="1.0"
     inkscape:pageopacity="0.0"
     inkscape:pageshadow="2"
     inkscape:zoom="4"
     inkscape:cx="27.766079"
     inkscape:cy="-33.550567"
     inkscape:document-units="mm"
     inkscape:current-layer="g938"
     showgrid="false"
     inkscape:window-width="716"
     inkscape:window-height="405"
     inkscape:window-x="749"
     inkscape:window-y="356"
     inkscape:window-maximized="0"
     inkscape:snap-global="true"
     showguides="false"
     fit-margin-top="0"
     fit-margin-left="0"
     fit-margin-right="0"
     fit-margin-bottom="0">
    <inkscape:grid
       type="xygrid"
       id="grid815"
       originx="-54.10729"
       originy="-252.54484" />
  </sodipodi:namedview>
  <metadata
     id="metadata5">
    <rdf:RDF>
      <cc:Work
         rdf:about="">
        <dc:format>image/svg+xml</dc:format>
        <dc:type
           rdf:resource="http://purl.org/dc/dcmitype/StillImage" />
        <dc:title></dc:title>
      </cc:Work>
    </rdf:RDF>
  </metadata>
  <g
     inkscape:label="Layer 1"
     inkscape:groupmode="layer"
     id="layer1"
     transform="translate(-54.107289,-36.253083)">
    <g
       id="g938"
       style="fill-opacity:1;stroke:url(#linearGradient946)">
      <path
         id="path823"
         transform="scale(0.26458333)"
         d="m 205,137.51953 v 5 20 c 0,5.00001 0,5.00001 5,5 h 20 c 0,0 5,-0.99999 5,-5 v -5 c 0,-4.99999 -5,-5 -5,-5 0,0 5,1e-5 5,-5 v -5 c 0,-4.99999 -5,-5 -5,-5 z m 5,5 c 0,0 13.43601,0.0329 20,0 1.66667,-1e-5 1.66667,4.99999 0,5 -1.99999,1e-5 -4.46875,0 -4.46875,0 -4.94153,-1e-5 -5,0 -5,5 0,5 0,5 5,5 5,0 3.46876,1e-5 4.46875,0 1.66667,-1e-5 1.66667,4.99999 0,5 -1.99999,1e-5 -5,0 -5,0 -5.27788,0 -14.92773,-0.0176 -14.92773,-0.0176 z"
         style="fill:#f7ce30;fill-opacity:1;stroke:url(#linearGradient4809);stroke-width:0.99999994px;stroke-linecap:butt;stroke-linejoin:round;stroke-opacity:1"
         inkscape:connector-curvature="0" />
      <g
         id="g1001"
         style="fill:url(#linearGradient4811);fill-opacity:1;stroke:#000000;stroke-opacity:1">
        <path
           style="fill:url(#linearGradient4811);fill-opacity:1;stroke:none;stroke-width:0.26499999;stroke-linecap:round;stroke-linejoin:round;stroke-miterlimit:4;stroke-dasharray:none;stroke-opacity:1"
           d="m 63.499998,37.708331 c 2e-6,1.322919 0,5.291667 0,5.291667 0,1.322919 2e-6,1.322918 1.322917,1.322918 l 5.291668,-10e-7 V 42.999998 L 66.145833,43 h -1.322916 v -1.322917 l -2e-6,-0.793752 h 3.96875 v -1.322916 h -3.96875 v -1.852084 l 5.291668,2e-6 v -1.322918 c -3.483354,-0.02457 -6.615722,-0.0055 -6.615722,-0.0055 0,0 4.61e-4,0.71261 0.0011,1.328379 z"
           id="path825"
           inkscape:connector-curvature="0"
           sodipodi:nodetypes="cssccccccccccccccc" />
        <path
           style="fill:url(#linearGradient4811);fill-opacity:1;stroke:none;stroke-width:0.26458332px;stroke-linecap:butt;stroke-linejoin:round;stroke-opacity:1"
           d="m 79.374999,36.385417 v 1.322916 L 79.375,43 v 1.322917 h 1.322917 l -10e-7,-3.439584 h 3.96875 v -1.322916 h -3.96875 v -1.852084 l 5.291667,10e-7 10e-7,-1.322917 z"
           id="path837"
           inkscape:connector-curvature="0"
           sodipodi:nodetypes="ccccccccccccc" />
        <path
           sodipodi:nodetypes="cssccccccccccccccc"
           inkscape:connector-curvature="0"
           id="path841"
           d="m 71.4375,37.708333 c 2e-6,1.322919 0,5.291667 0,5.291667 0,1.322919 2e-6,1.322918 1.322917,1.322918 l 5.291668,-1e-6 V 43 l -3.96875,2e-6 h -1.322916 v -1.322917 l -2e-6,-0.793752 h 3.96875 v -1.322916 h -3.96875 v -1.852084 l 5.291668,2e-6 v -1.322918 c -3.483354,-0.02457 -6.615722,-0.0055 -6.615722,-0.0055 0,0 4.61e-4,0.71261 0.0011,1.328379 z"
           style="fill:url(#linearGradient4811);fill-opacity:1;stroke:none;stroke-width:0.26499999;stroke-linecap:round;stroke-linejoin:round;stroke-miterlimit:4;stroke-dasharray:none;stroke-opacity:1" />
      </g>
    </g>
  </g>
</svg>
